<svg xmlns="http://www.w3.org/2000/svg" viewBox="0 0 536 417" width="50px" height="50px">
<defs><style>.cls-1{fill:#ff834f;}</style></defs>
<g id="Layer_2" data-name="Layer 2">
<g id="Layer_2-2" data-name="Layer 2">
<polygon class="cls-1" points="315 2 438 38 386 151 315 2"/>
<polygon class="cls-1" points="404 168 457 54 536 168 404 168"/>
<polygon class="cls-1" points="404 192 536 192 457 315 404 192"/>
<polygon class="cls-1" points="386 208 437 328 265 328 386 208"/>
<polygon class="cls-1" points="371 189 197 160 242 318 371 189"/>
<polygon class="cls-1" points="0 178 156 159 46 314 0 178"/>
<polygon class="cls-1" points="65 328 147 211 111 328 65 328"/>
<polygon class="cls-1" points="180 184 225 341 225 417 133 334 180 184"/>
<polygon class="cls-1" points="12 154 108 28 163 135 12 154"/>
<polygon class="cls-1" points="129 17 269 0 183 122 129 17"/>
<polygon class="cls-1" points="199 138 292 9 366 164 199 138"/>
</g></g>
</svg>