<svg width="34" height="36" viewBox="0 0 34 36" fill="none" xmlns="http://www.w3.org/2000/svg">
<path d="M1.18182 21.2273V19.8182C2.44697 19.8182 3.32955 19.553 3.82955 19.0227C4.33712 18.4924 4.59091 17.6061 4.59091 16.3636V12.7273C4.59091 11.6818 4.68939 10.7765 4.88636 10.0114C5.09091 9.24621 5.42045 8.61364 5.875 8.11364C6.32955 7.61364 6.93561 7.24242 7.69318 7C8.45076 6.75757 9.38636 6.63636 10.5 6.63636V8.86364C9.62121 8.86364 8.92803 9 8.42045 9.27273C7.92045 9.54545 7.56439 9.9697 7.35227 10.5455C7.14773 11.1136 7.04545 11.8409 7.04545 12.7273V17.2727C7.04545 17.8636 6.96591 18.4015 6.80682 18.8864C6.6553 19.3712 6.37121 19.7879 5.95455 20.1364C5.53788 20.4848 4.94318 20.7538 4.17045 20.9432C3.4053 21.1326 2.40909 21.2273 1.18182 21.2273ZM10.5 35.7273C9.38636 35.7273 8.45076 35.6061 7.69318 35.3636C6.93561 35.1212 6.32955 34.75 5.875 34.25C5.42045 33.75 5.09091 33.1174 4.88636 32.3523C4.68939 31.5871 4.59091 30.6818 4.59091 29.6364V26C4.59091 24.7576 4.33712 23.8712 3.82955 23.3409C3.32955 22.8106 2.44697 22.5455 1.18182 22.5455V21.1364C2.40909 21.1364 3.4053 21.2311 4.17045 21.4205C4.94318 21.6098 5.53788 21.8788 5.95455 22.2273C6.37121 22.5758 6.6553 22.9924 6.80682 23.4773C6.96591 23.9621 7.04545 24.5 7.04545 25.0909V29.6364C7.04545 30.5227 7.14773 31.25 7.35227 31.8182C7.56439 32.3864 7.92045 32.8068 8.42045 33.0795C8.92803 33.3598 9.62121 33.5 10.5 33.5V35.7273ZM1.18182 22.5455V19.8182H3.86364V22.5455H1.18182ZM31.0028 21.1364V22.5455C29.7377 22.5455 28.8513 22.8106 28.3438 23.3409C27.8438 23.8712 27.5938 24.7576 27.5938 26V29.6364C27.5938 30.6818 27.4915 31.5871 27.2869 32.3523C27.09 33.1174 26.7642 33.75 26.3097 34.25C25.8551 34.75 25.2491 35.1212 24.4915 35.3636C23.7339 35.6061 22.7983 35.7273 21.6847 35.7273V33.5C22.5634 33.5 23.2528 33.3598 23.7528 33.0795C24.2604 32.8068 24.6165 32.3864 24.821 31.8182C25.0331 31.25 25.1392 30.5227 25.1392 29.6364V25.0909C25.1392 24.5 25.215 23.9621 25.3665 23.4773C25.5256 22.9924 25.8134 22.5758 26.2301 22.2273C26.6468 21.8788 27.2377 21.6098 28.0028 21.4205C28.7756 21.2311 29.7756 21.1364 31.0028 21.1364ZM21.6847 6.63636C22.7983 6.63636 23.7339 6.75757 24.4915 7C25.2491 7.24242 25.8551 7.61364 26.3097 8.11364C26.7642 8.61364 27.09 9.24621 27.2869 10.0114C27.4915 10.7765 27.5938 11.6818 27.5938 12.7273V16.3636C27.5938 17.6061 27.8438 18.4924 28.3438 19.0227C28.8513 19.553 29.7377 19.8182 31.0028 19.8182V21.2273C29.7756 21.2273 28.7756 21.1326 28.0028 20.9432C27.2377 20.7538 26.6468 20.4848 26.2301 20.1364C25.8134 19.7879 25.5256 19.3712 25.3665 18.8864C25.215 18.4015 25.1392 17.8636 25.1392 17.2727V12.7273C25.1392 11.8409 25.0331 11.1136 24.821 10.5455C24.6165 9.9697 24.2604 9.54545 23.7528 9.27273C23.2528 9 22.5634 8.86364 21.6847 8.86364V6.63636ZM31.0028 19.8182V22.5455H28.321V19.8182H31.0028Z" fill="white"/>
</svg>
